<?xml version="1.0" encoding="UTF-8" standalone="no"?>
<!DOCTYPE svg PUBLIC "-//W3C//DTD SVG 1.1//EN"
 "http://www.w3.org/Graphics/SVG/1.1/DTD/svg11.dtd">
<!-- Generated by graphviz version 2.38.0 (20140413.2041)
 -->
<!-- Title: G Pages: 1 -->
<svg width="368pt" height="653pt"
 viewBox="0.00 0.00 368.12 653.00" xmlns="http://www.w3.org/2000/svg" xmlns:xlink="http://www.w3.org/1999/xlink">
<g id="graph0" class="graph" transform="scale(1 1) rotate(0) translate(4 649)">
<title>G</title>
<polygon fill="white" stroke="#000000" points="-4,4 -4,-649 364.125,-649 364.125,4 -4,4"/>
<!-- 28 -->
<g id="node1" class="node"><title>28</title>
<polygon fill="none" stroke="black" points="29.1689,-0.5 29.1689,-88.5 330.956,-88.5 330.956,-0.5 29.1689,-0.5"/>
<text text-anchor="middle" x="86.1484" y="-73.3" font-family="Times,serif" font-size="14.00">operation:</text>
<polyline fill="none" stroke="black" points="29.1689,-66.5 143.128,-66.5 "/>
<text text-anchor="middle" x="86.1484" y="-51.3" font-family="Times,serif" font-size="14.00">output type:</text>
<polyline fill="none" stroke="black" points="29.1689,-44.5 143.128,-44.5 "/>
<text text-anchor="middle" x="86.1484" y="-29.3" font-family="Times,serif" font-size="14.00">elements:</text>
<polyline fill="none" stroke="black" points="29.1689,-22.5 143.128,-22.5 "/>
<text text-anchor="middle" x="86.1484" y="-7.3" font-family="Times,serif" font-size="14.00">time per element:</text>
<polyline fill="none" stroke="black" points="143.128,-0.5 143.128,-88.5 "/>
<text text-anchor="middle" x="237.042" y="-73.3" font-family="Times,serif" font-size="14.00">Custom</text>
<polyline fill="none" stroke="black" points="143.128,-66.5 330.956,-66.5 "/>
<text text-anchor="middle" x="237.042" y="-51.3" font-family="Times,serif" font-size="14.00">((), ndarray[uint16](100, 100))</text>
<polyline fill="none" stroke="black" points="143.128,-44.5 330.956,-44.5 "/>
<text text-anchor="middle" x="237.042" y="-29.3" font-family="Times,serif" font-size="14.00">1</text>
<polyline fill="none" stroke="black" points="143.128,-22.5 330.956,-22.5 "/>
<text text-anchor="middle" x="237.042" y="-7.3" font-family="Times,serif" font-size="14.00">142.5ms</text>
</g>
<!-- 31 -->
<g id="node2" class="node"><title>31</title>
<polygon fill="none" stroke="black" points="16.7241,-139.5 16.7241,-227.5 343.401,-227.5 343.401,-139.5 16.7241,-139.5"/>
<text text-anchor="middle" x="73.7036" y="-212.3" font-family="Times,serif" font-size="14.00">operation:</text>
<polyline fill="none" stroke="black" points="16.7241,-205.5 130.683,-205.5 "/>
<text text-anchor="middle" x="73.7036" y="-190.3" font-family="Times,serif" font-size="14.00">output type:</text>
<polyline fill="none" stroke="black" points="16.7241,-183.5 130.683,-183.5 "/>
<text text-anchor="middle" x="73.7036" y="-168.3" font-family="Times,serif" font-size="14.00">elements:</text>
<polyline fill="none" stroke="black" points="16.7241,-161.5 130.683,-161.5 "/>
<text text-anchor="middle" x="73.7036" y="-146.3" font-family="Times,serif" font-size="14.00">time per element:</text>
<polyline fill="none" stroke="black" points="130.683,-139.5 130.683,-227.5 "/>
<text text-anchor="middle" x="237.042" y="-212.3" font-family="Times,serif" font-size="14.00">Custom</text>
<polyline fill="none" stroke="black" points="130.683,-205.5 343.401,-205.5 "/>
<text text-anchor="middle" x="237.042" y="-190.3" font-family="Times,serif" font-size="14.00">((float), ndarray[uint16](100, 100))</text>
<polyline fill="none" stroke="black" points="130.683,-183.5 343.401,-183.5 "/>
<text text-anchor="middle" x="237.042" y="-168.3" font-family="Times,serif" font-size="14.00">1</text>
<polyline fill="none" stroke="black" points="130.683,-161.5 343.401,-161.5 "/>
<text text-anchor="middle" x="237.042" y="-146.3" font-family="Times,serif" font-size="14.00">59.9ms</text>
</g>
<!-- 31&#45;&gt;28 -->
<g id="edge4" class="edge"><title>31&#45;&gt;28</title>
<path fill="none" stroke="black" stroke-dasharray="5,2" d="M180.062,-139.152C180.062,-126.284 180.062,-112.04 180.062,-98.6256"/>
<polygon fill="black" stroke="black" points="183.563,-98.5656 180.062,-88.5657 176.563,-98.5657 183.563,-98.5656"/>
<text text-anchor="middle" x="219.728" y="-109.8" font-family="Times,serif" font-size="14.00">MapPartitions</text>
</g>
<!-- 34 -->
<g id="node3" class="node"><title>34</title>
<polygon fill="none" stroke="black" points="21.7793,-278.5 21.7793,-366.5 338.346,-366.5 338.346,-278.5 21.7793,-278.5"/>
<text text-anchor="middle" x="78.7588" y="-351.3" font-family="Times,serif" font-size="14.00">operation:</text>
<polyline fill="none" stroke="black" points="21.7793,-344.5 135.738,-344.5 "/>
<text text-anchor="middle" x="78.7588" y="-329.3" font-family="Times,serif" font-size="14.00">output type:</text>
<polyline fill="none" stroke="black" points="21.7793,-322.5 135.738,-322.5 "/>
<text text-anchor="middle" x="78.7588" y="-307.3" font-family="Times,serif" font-size="14.00">elements:</text>
<polyline fill="none" stroke="black" points="21.7793,-300.5 135.738,-300.5 "/>
<text text-anchor="middle" x="78.7588" y="-285.3" font-family="Times,serif" font-size="14.00">time per element:</text>
<polyline fill="none" stroke="black" points="135.738,-278.5 135.738,-366.5 "/>
<text text-anchor="middle" x="237.042" y="-351.3" font-family="Times,serif" font-size="14.00">Custom</text>
<polyline fill="none" stroke="black" points="135.738,-344.5 338.346,-344.5 "/>
<text text-anchor="middle" x="237.042" y="-329.3" font-family="Times,serif" font-size="14.00">((int), ndarray[uint16](384, 384))</text>
<polyline fill="none" stroke="black" points="135.738,-322.5 338.346,-322.5 "/>
<text text-anchor="middle" x="237.042" y="-307.3" font-family="Times,serif" font-size="14.00">1</text>
<polyline fill="none" stroke="black" points="135.738,-300.5 338.346,-300.5 "/>
<text text-anchor="middle" x="237.042" y="-285.3" font-family="Times,serif" font-size="14.00">89.5ms</text>
</g>
<!-- 34&#45;&gt;31 -->
<g id="edge3" class="edge"><title>34&#45;&gt;31</title>
<path fill="none" stroke="black" stroke-dasharray="5,2" d="M180.062,-278.152C180.062,-265.284 180.062,-251.04 180.062,-237.626"/>
<polygon fill="black" stroke="black" points="183.563,-237.566 180.062,-227.566 176.563,-237.566 183.563,-237.566"/>
<text text-anchor="middle" x="219.728" y="-248.8" font-family="Times,serif" font-size="14.00">MapPartitions</text>
</g>
<!-- 37 -->
<g id="node4" class="node"><title>37</title>
<polygon fill="none" stroke="black" points="21.7793,-417.5 21.7793,-505.5 338.346,-505.5 338.346,-417.5 21.7793,-417.5"/>
<text text-anchor="middle" x="78.7588" y="-490.3" font-family="Times,serif" font-size="14.00">operation:</text>
<polyline fill="none" stroke="black" points="21.7793,-483.5 135.738,-483.5 "/>
<text text-anchor="middle" x="78.7588" y="-468.3" font-family="Times,serif" font-size="14.00">output type:</text>
<polyline fill="none" stroke="black" points="21.7793,-461.5 135.738,-461.5 "/>
<text text-anchor="middle" x="78.7588" y="-446.3" font-family="Times,serif" font-size="14.00">elements:</text>
<polyline fill="none" stroke="black" points="21.7793,-439.5 135.738,-439.5 "/>
<text text-anchor="middle" x="78.7588" y="-424.3" font-family="Times,serif" font-size="14.00">time per element:</text>
<polyline fill="none" stroke="black" points="135.738,-417.5 135.738,-505.5 "/>
<text text-anchor="middle" x="237.042" y="-490.3" font-family="Times,serif" font-size="14.00">func</text>
<polyline fill="none" stroke="black" points="135.738,-483.5 338.346,-483.5 "/>
<text text-anchor="middle" x="237.042" y="-468.3" font-family="Times,serif" font-size="14.00">((int), ndarray[uint16](384, 384))</text>
<polyline fill="none" stroke="black" points="135.738,-461.5 338.346,-461.5 "/>
<text text-anchor="middle" x="237.042" y="-446.3" font-family="Times,serif" font-size="14.00">1</text>
<polyline fill="none" stroke="black" points="135.738,-439.5 338.346,-439.5 "/>
<text text-anchor="middle" x="237.042" y="-424.3" font-family="Times,serif" font-size="14.00">68.0ms</text>
</g>
<!-- 37&#45;&gt;34 -->
<g id="edge2" class="edge"><title>37&#45;&gt;34</title>
<path fill="none" stroke="black" stroke-dasharray="5,2" d="M180.062,-417.152C180.062,-404.284 180.062,-390.04 180.062,-376.626"/>
<polygon fill="black" stroke="black" points="183.563,-376.566 180.062,-366.566 176.563,-376.566 183.563,-376.566"/>
<text text-anchor="middle" x="219.728" y="-387.8" font-family="Times,serif" font-size="14.00">MapPartitions</text>
</g>
<!-- 25 -->
<g id="node5" class="node"><title>25</title>
<polygon fill="none" stroke="black" points="0,-556.5 0,-644.5 360.125,-644.5 360.125,-556.5 0,-556.5"/>
<text text-anchor="middle" x="56.9795" y="-629.3" font-family="Times,serif" font-size="14.00">operation:</text>
<polyline fill="none" stroke="black" points="0,-622.5 113.959,-622.5 "/>
<text text-anchor="middle" x="56.9795" y="-607.3" font-family="Times,serif" font-size="14.00">output type:</text>
<polyline fill="none" stroke="black" points="0,-600.5 113.959,-600.5 "/>
<text text-anchor="middle" x="56.9795" y="-585.3" font-family="Times,serif" font-size="14.00">elements:</text>
<polyline fill="none" stroke="black" points="0,-578.5 113.959,-578.5 "/>
<text text-anchor="middle" x="56.9795" y="-563.3" font-family="Times,serif" font-size="14.00">time per element:</text>
<polyline fill="none" stroke="black" points="113.959,-556.5 113.959,-644.5 "/>
<text text-anchor="middle" x="237.042" y="-629.3" font-family="Times,serif" font-size="14.00">Custom</text>
<polyline fill="none" stroke="black" points="113.959,-622.5 360.125,-622.5 "/>
<text text-anchor="middle" x="237.042" y="-607.3" font-family="Times,serif" font-size="14.00">((int, int, int), ndarray[uint16](256, 256))</text>
<polyline fill="none" stroke="black" points="113.959,-600.5 360.125,-600.5 "/>
<text text-anchor="middle" x="237.042" y="-585.3" font-family="Times,serif" font-size="14.00">4</text>
<polyline fill="none" stroke="black" points="113.959,-578.5 360.125,-578.5 "/>
<text text-anchor="middle" x="237.042" y="-563.3" font-family="Times,serif" font-size="14.00">95.2ms</text>
</g>
<!-- 25&#45;&gt;37 -->
<g id="edge1" class="edge"><title>25&#45;&gt;37</title>
<path fill="none" stroke="black" stroke-dasharray="5,2" d="M180.062,-556.152C180.062,-543.284 180.062,-529.04 180.062,-515.626"/>
<polygon fill="black" stroke="black" points="183.563,-515.566 180.062,-505.566 176.563,-515.566 183.563,-515.566"/>
<text text-anchor="middle" x="219.728" y="-526.8" font-family="Times,serif" font-size="14.00">MapPartitions</text>
</g>
</g>
</svg>
