<?xml version="1.0" encoding="UTF-8" standalone="no"?>
<!DOCTYPE svg PUBLIC "-//W3C//DTD SVG 1.1//EN"
 "http://www.w3.org/Graphics/SVG/1.1/DTD/svg11.dtd">
<!-- Generated by graphviz version 2.38.0 (20140413.2041)
 -->
<!-- Title: G Pages: 1 -->
<svg width="375pt" height="1070pt"
 viewBox="0.00 0.00 375.12 1070.00" xmlns="http://www.w3.org/2000/svg" xmlns:xlink="http://www.w3.org/1999/xlink">
<g id="graph0" class="graph" transform="scale(1 1) rotate(0) translate(4 1066)">
<title>G</title>
<polygon fill="white" stroke="#000000" points="-4,4 -4,-1066 371.125,-1066 371.125,4 -4,4"/>
<!-- &#45;1586250242056127073 -->
<g id="node1" class="node"><title>&#45;1586250242056127073</title>
<polygon fill="lightgreen" stroke="black" points="36.1689,-0.5 36.1689,-88.5 330.956,-88.5 330.956,-0.5 36.1689,-0.5"/>
<text text-anchor="middle" x="93.1484" y="-73.3" font-family="Times,serif" font-size="14.00">operation:</text>
<polyline fill="none" stroke="black" points="36.1689,-66.5 150.128,-66.5 "/>
<text text-anchor="middle" x="93.1484" y="-51.3" font-family="Times,serif" font-size="14.00">output type:</text>
<polyline fill="none" stroke="black" points="36.1689,-44.5 150.128,-44.5 "/>
<text text-anchor="middle" x="93.1484" y="-29.3" font-family="Times,serif" font-size="14.00">elements:</text>
<polyline fill="none" stroke="black" points="36.1689,-22.5 150.128,-22.5 "/>
<text text-anchor="middle" x="93.1484" y="-7.3" font-family="Times,serif" font-size="14.00">time per element:</text>
<polyline fill="none" stroke="black" points="150.128,-0.5 150.128,-88.5 "/>
<text text-anchor="middle" x="240.542" y="-73.3" font-family="Times,serif" font-size="14.00">Custom</text>
<polyline fill="none" stroke="black" points="150.128,-66.5 330.956,-66.5 "/>
<text text-anchor="middle" x="240.542" y="-51.3" font-family="Times,serif" font-size="14.00">((), ndarray[uint8](100, 100))</text>
<polyline fill="none" stroke="black" points="150.128,-44.5 330.956,-44.5 "/>
<text text-anchor="middle" x="240.542" y="-29.3" font-family="Times,serif" font-size="14.00">1</text>
<polyline fill="none" stroke="black" points="150.128,-22.5 330.956,-22.5 "/>
<text text-anchor="middle" x="240.542" y="-7.3" font-family="Times,serif" font-size="14.00">13.1ns</text>
</g>
<!-- &#45;4647151815504801923 -->
<g id="node2" class="node"><title>&#45;4647151815504801923</title>
<polygon fill="lightgreen" stroke="black" points="23.7241,-139.5 23.7241,-227.5 343.401,-227.5 343.401,-139.5 23.7241,-139.5"/>
<text text-anchor="middle" x="80.7036" y="-212.3" font-family="Times,serif" font-size="14.00">operation:</text>
<polyline fill="none" stroke="black" points="23.7241,-205.5 137.683,-205.5 "/>
<text text-anchor="middle" x="80.7036" y="-190.3" font-family="Times,serif" font-size="14.00">output type:</text>
<polyline fill="none" stroke="black" points="23.7241,-183.5 137.683,-183.5 "/>
<text text-anchor="middle" x="80.7036" y="-168.3" font-family="Times,serif" font-size="14.00">elements:</text>
<polyline fill="none" stroke="black" points="23.7241,-161.5 137.683,-161.5 "/>
<text text-anchor="middle" x="80.7036" y="-146.3" font-family="Times,serif" font-size="14.00">time per element:</text>
<polyline fill="none" stroke="black" points="137.683,-139.5 137.683,-227.5 "/>
<text text-anchor="middle" x="240.542" y="-212.3" font-family="Times,serif" font-size="14.00">Custom</text>
<polyline fill="none" stroke="black" points="137.683,-205.5 343.401,-205.5 "/>
<text text-anchor="middle" x="240.542" y="-190.3" font-family="Times,serif" font-size="14.00">((float), ndarray[uint8](100, 100))</text>
<polyline fill="none" stroke="black" points="137.683,-183.5 343.401,-183.5 "/>
<text text-anchor="middle" x="240.542" y="-168.3" font-family="Times,serif" font-size="14.00">1</text>
<polyline fill="none" stroke="black" points="137.683,-161.5 343.401,-161.5 "/>
<text text-anchor="middle" x="240.542" y="-146.3" font-family="Times,serif" font-size="14.00">14.1ns</text>
</g>
<!-- &#45;4647151815504801923&#45;&gt;&#45;1586250242056127073 -->
<g id="edge9" class="edge"><title>&#45;4647151815504801923&#45;&gt;&#45;1586250242056127073</title>
<path fill="none" stroke="black" stroke-dasharray="5,2" d="M183.562,-139.152C183.562,-126.284 183.562,-112.04 183.562,-98.6256"/>
<polygon fill="black" stroke="black" points="187.063,-98.5656 183.562,-88.5657 180.063,-98.5657 187.063,-98.5656"/>
<text text-anchor="middle" x="195.614" y="-109.8" font-family="Times,serif" font-size="14.00">map</text>
</g>
<!-- 2727354362403873270 -->
<g id="node3" class="node"><title>2727354362403873270</title>
<polygon fill="none" stroke="black" points="14.7793,-278.5 14.7793,-366.5 352.346,-366.5 352.346,-278.5 14.7793,-278.5"/>
<text text-anchor="middle" x="71.7588" y="-351.3" font-family="Times,serif" font-size="14.00">operation:</text>
<polyline fill="none" stroke="black" points="14.7793,-344.5 128.738,-344.5 "/>
<text text-anchor="middle" x="71.7588" y="-329.3" font-family="Times,serif" font-size="14.00">output type:</text>
<polyline fill="none" stroke="black" points="14.7793,-322.5 128.738,-322.5 "/>
<text text-anchor="middle" x="71.7588" y="-307.3" font-family="Times,serif" font-size="14.00">elements:</text>
<polyline fill="none" stroke="black" points="14.7793,-300.5 128.738,-300.5 "/>
<text text-anchor="middle" x="71.7588" y="-285.3" font-family="Times,serif" font-size="14.00">time per element:</text>
<polyline fill="none" stroke="black" points="128.738,-278.5 128.738,-366.5 "/>
<text text-anchor="middle" x="240.542" y="-351.3" font-family="Times,serif" font-size="14.00">Custom</text>
<polyline fill="none" stroke="black" points="128.738,-344.5 352.346,-344.5 "/>
<text text-anchor="middle" x="240.542" y="-329.3" font-family="Times,serif" font-size="14.00">((int), ndarray[uint8](22902, 30021))</text>
<polyline fill="none" stroke="black" points="128.738,-322.5 352.346,-322.5 "/>
<text text-anchor="middle" x="240.542" y="-307.3" font-family="Times,serif" font-size="14.00">1</text>
<polyline fill="none" stroke="black" points="128.738,-300.5 352.346,-300.5 "/>
<text text-anchor="middle" x="240.542" y="-285.3" font-family="Times,serif" font-size="14.00">3.1ns</text>
</g>
<!-- 2727354362403873270&#45;&gt;&#45;4647151815504801923 -->
<g id="edge8" class="edge"><title>2727354362403873270&#45;&gt;&#45;4647151815504801923</title>
<path fill="none" stroke="black" stroke-dasharray="5,2" d="M183.562,-278.152C183.562,-265.284 183.562,-251.04 183.562,-237.626"/>
<polygon fill="black" stroke="black" points="187.063,-237.566 183.562,-227.566 180.063,-237.566 187.063,-237.566"/>
<text text-anchor="middle" x="195.614" y="-248.8" font-family="Times,serif" font-size="14.00">map</text>
</g>
<!-- &#45;7474158057114782248 -->
<g id="node4" class="node"><title>&#45;7474158057114782248</title>
<polygon fill="orange" stroke="black" points="14.7793,-417.5 14.7793,-505.5 352.346,-505.5 352.346,-417.5 14.7793,-417.5"/>
<text text-anchor="middle" x="71.7588" y="-490.3" font-family="Times,serif" font-size="14.00">operation:</text>
<polyline fill="none" stroke="black" points="14.7793,-483.5 128.738,-483.5 "/>
<text text-anchor="middle" x="71.7588" y="-468.3" font-family="Times,serif" font-size="14.00">output type:</text>
<polyline fill="none" stroke="black" points="14.7793,-461.5 128.738,-461.5 "/>
<text text-anchor="middle" x="71.7588" y="-446.3" font-family="Times,serif" font-size="14.00">elements:</text>
<polyline fill="none" stroke="black" points="14.7793,-439.5 128.738,-439.5 "/>
<text text-anchor="middle" x="71.7588" y="-424.3" font-family="Times,serif" font-size="14.00">time per element:</text>
<polyline fill="none" stroke="black" points="128.738,-417.5 128.738,-505.5 "/>
<text text-anchor="middle" x="240.542" y="-490.3" font-family="Times,serif" font-size="14.00">_unchunk</text>
<polyline fill="none" stroke="black" points="128.738,-483.5 352.346,-483.5 "/>
<text text-anchor="middle" x="240.542" y="-468.3" font-family="Times,serif" font-size="14.00">((int), ndarray[uint8](22902, 30021))</text>
<polyline fill="none" stroke="black" points="128.738,-461.5 352.346,-461.5 "/>
<text text-anchor="middle" x="240.542" y="-446.3" font-family="Times,serif" font-size="14.00">1</text>
<polyline fill="none" stroke="black" points="128.738,-439.5 352.346,-439.5 "/>
<text text-anchor="middle" x="240.542" y="-424.3" font-family="Times,serif" font-size="14.00">3.8ns</text>
</g>
<!-- &#45;7474158057114782248&#45;&gt;2727354362403873270 -->
<g id="edge7" class="edge"><title>&#45;7474158057114782248&#45;&gt;2727354362403873270</title>
<path fill="none" stroke="black" stroke-dasharray="5,2" d="M183.562,-417.152C183.562,-404.284 183.562,-390.04 183.562,-376.626"/>
<polygon fill="black" stroke="black" points="187.063,-376.566 183.562,-366.566 180.063,-376.566 187.063,-376.566"/>
<text text-anchor="middle" x="196.783" y="-387.8" font-family="Times,serif" font-size="14.00">filter</text>
</g>
<!-- 5855379957661397283 -->
<g id="node5" class="node"><title>5855379957661397283</title>
<polygon fill="yellow" stroke="black" points="0,-556.5 0,-644.5 367.125,-644.5 367.125,-556.5 0,-556.5"/>
<text text-anchor="middle" x="56.9795" y="-629.3" font-family="Times,serif" font-size="14.00">operation:</text>
<polyline fill="none" stroke="black" points="0,-622.5 113.959,-622.5 "/>
<text text-anchor="middle" x="56.9795" y="-607.3" font-family="Times,serif" font-size="14.00">output type:</text>
<polyline fill="none" stroke="black" points="0,-600.5 113.959,-600.5 "/>
<text text-anchor="middle" x="56.9795" y="-585.3" font-family="Times,serif" font-size="14.00">elements:</text>
<polyline fill="none" stroke="black" points="0,-578.5 113.959,-578.5 "/>
<text text-anchor="middle" x="56.9795" y="-563.3" font-family="Times,serif" font-size="14.00">time per element:</text>
<polyline fill="none" stroke="black" points="113.959,-556.5 113.959,-644.5 "/>
<text text-anchor="middle" x="240.542" y="-629.3" font-family="Times,serif" font-size="14.00">_chunk</text>
<polyline fill="none" stroke="black" points="113.959,-622.5 367.125,-622.5 "/>
<text text-anchor="middle" x="240.542" y="-607.3" font-family="Times,serif" font-size="14.00">((int, int, int), ndarray[uint8](1024, 1024))</text>
<polyline fill="none" stroke="black" points="113.959,-600.5 367.125,-600.5 "/>
<text text-anchor="middle" x="240.542" y="-585.3" font-family="Times,serif" font-size="14.00">690</text>
<polyline fill="none" stroke="black" points="113.959,-578.5 367.125,-578.5 "/>
<text text-anchor="middle" x="240.542" y="-563.3" font-family="Times,serif" font-size="14.00">488.1ms</text>
</g>
<!-- 5855379957661397283&#45;&gt;&#45;7474158057114782248 -->
<g id="edge6" class="edge"><title>5855379957661397283&#45;&gt;&#45;7474158057114782248</title>
<path fill="none" stroke="black" stroke-dasharray="5,2" d="M183.562,-556.152C183.562,-543.284 183.562,-529.04 183.562,-515.626"/>
<polygon fill="black" stroke="black" points="187.063,-515.566 183.562,-505.566 180.063,-515.566 187.063,-515.566"/>
<text text-anchor="middle" x="208.062" y="-526.8" font-family="Times,serif" font-size="14.00">groupBy</text>
</g>
<!-- &#45;1074470093893800946 -->
<g id="node6" class="node"><title>&#45;1074470093893800946</title>
<polygon fill="lightgreen" stroke="black" points="35.3896,-695.5 35.3896,-783.5 331.735,-783.5 331.735,-695.5 35.3896,-695.5"/>
<text text-anchor="middle" x="92.3691" y="-768.3" font-family="Times,serif" font-size="14.00">operation:</text>
<polyline fill="none" stroke="black" points="35.3896,-761.5 149.349,-761.5 "/>
<text text-anchor="middle" x="92.3691" y="-746.3" font-family="Times,serif" font-size="14.00">output type:</text>
<polyline fill="none" stroke="black" points="35.3896,-739.5 149.349,-739.5 "/>
<text text-anchor="middle" x="92.3691" y="-724.3" font-family="Times,serif" font-size="14.00">elements:</text>
<polyline fill="none" stroke="black" points="35.3896,-717.5 149.349,-717.5 "/>
<text text-anchor="middle" x="92.3691" y="-702.3" font-family="Times,serif" font-size="14.00">time per element:</text>
<polyline fill="none" stroke="black" points="149.349,-695.5 149.349,-783.5 "/>
<text text-anchor="middle" x="240.542" y="-768.3" font-family="Times,serif" font-size="14.00">Custom</text>
<polyline fill="none" stroke="black" points="149.349,-761.5 331.735,-761.5 "/>
<text text-anchor="middle" x="240.542" y="-746.3" font-family="Times,serif" font-size="14.00">(int, DiskMappedLazyImage)</text>
<polyline fill="none" stroke="black" points="149.349,-739.5 331.735,-739.5 "/>
<text text-anchor="middle" x="240.542" y="-724.3" font-family="Times,serif" font-size="14.00">1</text>
<polyline fill="none" stroke="black" points="149.349,-717.5 331.735,-717.5 "/>
<text text-anchor="middle" x="240.542" y="-702.3" font-family="Times,serif" font-size="14.00">18.8ns</text>
</g>
<!-- &#45;1074470093893800946&#45;&gt;5855379957661397283 -->
<g id="edge3" class="edge"><title>&#45;1074470093893800946&#45;&gt;5855379957661397283</title>
<path fill="none" stroke="black" stroke-dasharray="5,2" d="M128.24,-695.251C123.745,-689.592 119.848,-683.486 117.011,-677 113.465,-668.896 113.925,-661.045 116.943,-653.663"/>
<polygon fill="black" stroke="black" points="120.197,-655.016 122.028,-644.58 114.089,-651.597 120.197,-655.016"/>
<text text-anchor="middle" x="139.338" y="-665.8" font-family="Times,serif" font-size="14.00">flatMap</text>
</g>
<!-- &#45;1074470093893800946&#45;&gt;5855379957661397283 -->
<g id="edge4" class="edge"><title>&#45;1074470093893800946&#45;&gt;5855379957661397283</title>
<path fill="none" stroke="black" stroke-dasharray="5,2" d="M177.234,-695.152C176.784,-682.284 176.694,-668.04 176.966,-654.626"/>
<polygon fill="black" stroke="black" points="180.466,-654.659 177.244,-644.566 173.469,-654.465 180.466,-654.659"/>
</g>
<!-- &#45;1074470093893800946&#45;&gt;5855379957661397283 -->
<g id="edge5" class="edge"><title>&#45;1074470093893800946&#45;&gt;5855379957661397283</title>
<path fill="none" stroke="black" stroke-dasharray="5,2" d="M189.891,-695.152C190.341,-682.284 190.431,-668.04 190.159,-654.626"/>
<polygon fill="black" stroke="black" points="193.656,-654.465 189.881,-644.566 186.659,-654.659 193.656,-654.465"/>
</g>
<!-- &#45;7483782619092174737 -->
<g id="node7" class="node"><title>&#45;7483782619092174737</title>
<polygon fill="none" stroke="black" points="87.0864,-834.5 87.0864,-922.5 280.039,-922.5 280.039,-834.5 87.0864,-834.5"/>
<text text-anchor="middle" x="144.066" y="-907.3" font-family="Times,serif" font-size="14.00">operation:</text>
<polyline fill="none" stroke="black" points="87.0864,-900.5 201.045,-900.5 "/>
<text text-anchor="middle" x="144.066" y="-885.3" font-family="Times,serif" font-size="14.00">output type:</text>
<polyline fill="none" stroke="black" points="87.0864,-878.5 201.045,-878.5 "/>
<text text-anchor="middle" x="144.066" y="-863.3" font-family="Times,serif" font-size="14.00">elements:</text>
<polyline fill="none" stroke="black" points="87.0864,-856.5 201.045,-856.5 "/>
<text text-anchor="middle" x="144.066" y="-841.3" font-family="Times,serif" font-size="14.00">time per element:</text>
<polyline fill="none" stroke="black" points="201.045,-834.5 201.045,-922.5 "/>
<text text-anchor="middle" x="240.542" y="-907.3" font-family="Times,serif" font-size="14.00">zip</text>
<polyline fill="none" stroke="black" points="201.045,-900.5 280.039,-900.5 "/>
<text text-anchor="middle" x="240.542" y="-885.3" font-family="Times,serif" font-size="14.00">(string, int)</text>
<polyline fill="none" stroke="black" points="201.045,-878.5 280.039,-878.5 "/>
<text text-anchor="middle" x="240.542" y="-863.3" font-family="Times,serif" font-size="14.00">1</text>
<polyline fill="none" stroke="black" points="201.045,-856.5 280.039,-856.5 "/>
<text text-anchor="middle" x="240.542" y="-841.3" font-family="Times,serif" font-size="14.00">6.0ns</text>
</g>
<!-- &#45;7483782619092174737&#45;&gt;&#45;1074470093893800946 -->
<g id="edge2" class="edge"><title>&#45;7483782619092174737&#45;&gt;&#45;1074470093893800946</title>
<path fill="none" stroke="black" stroke-dasharray="5,2" d="M183.562,-834.152C183.562,-821.284 183.562,-807.04 183.562,-793.626"/>
<polygon fill="black" stroke="black" points="187.063,-793.566 183.562,-783.566 180.063,-793.566 187.063,-793.566"/>
<text text-anchor="middle" x="195.614" y="-804.8" font-family="Times,serif" font-size="14.00">map</text>
</g>
<!-- &#45;2243079814351617022 -->
<g id="node8" class="node"><title>&#45;2243079814351617022</title>
<polygon fill="turquoise" stroke="black" points="62.2104,-973.5 62.2104,-1061.5 304.915,-1061.5 304.915,-973.5 62.2104,-973.5"/>
<text text-anchor="middle" x="119.19" y="-1046.3" font-family="Times,serif" font-size="14.00">operation:</text>
<polyline fill="none" stroke="black" points="62.2104,-1039.5 176.169,-1039.5 "/>
<text text-anchor="middle" x="119.19" y="-1024.3" font-family="Times,serif" font-size="14.00">output type:</text>
<polyline fill="none" stroke="black" points="62.2104,-1017.5 176.169,-1017.5 "/>
<text text-anchor="middle" x="119.19" y="-1002.3" font-family="Times,serif" font-size="14.00">elements:</text>
<polyline fill="none" stroke="black" points="62.2104,-995.5 176.169,-995.5 "/>
<text text-anchor="middle" x="119.19" y="-980.3" font-family="Times,serif" font-size="14.00">time per element:</text>
<polyline fill="none" stroke="black" points="176.169,-973.5 176.169,-1061.5 "/>
<text text-anchor="middle" x="240.542" y="-1046.3" font-family="Times,serif" font-size="14.00">parallelize : Custom</text>
<polyline fill="none" stroke="black" points="176.169,-1039.5 304.915,-1039.5 "/>
<text text-anchor="middle" x="240.542" y="-1024.3" font-family="Times,serif" font-size="14.00">string</text>
<polyline fill="none" stroke="black" points="176.169,-1017.5 304.915,-1017.5 "/>
<text text-anchor="middle" x="240.542" y="-1002.3" font-family="Times,serif" font-size="14.00">1</text>
<polyline fill="none" stroke="black" points="176.169,-995.5 304.915,-995.5 "/>
<text text-anchor="middle" x="240.542" y="-980.3" font-family="Times,serif" font-size="14.00">None</text>
</g>
<!-- &#45;2243079814351617022&#45;&gt;&#45;7483782619092174737 -->
<g id="edge1" class="edge"><title>&#45;2243079814351617022&#45;&gt;&#45;7483782619092174737</title>
<path fill="none" stroke="black" stroke-dasharray="5,2" d="M183.562,-973.152C183.562,-960.284 183.562,-946.04 183.562,-932.626"/>
<polygon fill="black" stroke="black" points="187.063,-932.566 183.562,-922.566 180.063,-932.566 187.063,-932.566"/>
<text text-anchor="middle" x="221.772" y="-943.8" font-family="Times,serif" font-size="14.00">zipWithIndex</text>
</g>
</g>
</svg>
